<?xml version="1.0" encoding="utf-8"?>
<!-- Generator: Adobe Illustrator 21.0.0, SVG Export Plug-In . SVG Version: 6.00 Build 0)  -->
<svg version="1.1" id="Layer_1" xmlns="http://www.w3.org/2000/svg" xmlns:xlink="http://www.w3.org/1999/xlink" x="0px" y="0px"
	 viewBox="0 0 24 24" style="enable-background:new 0 0 24 24;" xml:space="preserve">
<style type="text/css">
	.st0{fill:none;stroke:#000000;stroke-linecap:round;stroke-linejoin:round;stroke-miterlimit:10;}
	
		.st1{fill-rule:evenodd;clip-rule:evenodd;fill:none;stroke:#000000;stroke-linecap:round;stroke-linejoin:round;stroke-miterlimit:10;}
	.st2{fill:none;stroke:#000000;stroke-linecap:square;stroke-linejoin:round;stroke-miterlimit:10;}
	.st3{fill:none;stroke:#000000;stroke-linecap:square;stroke-miterlimit:10;}
</style>
<g>
	<g>
		<path class="st0" d="M15.8,5.2L18,4c0.6-0.3,1.3-0.2,1.8,0.3C20.2,4.7,20.3,5.5,20,6l-1.2,2.2c1.1,0.2,2.3-0.2,3.1-1
			c1.4-1.4,1.4-3.7,0-5.2c-1.4-1.4-3.7-1.4-5.2,0C15.9,2.9,15.6,4.1,15.8,5.2z"/>
		<path class="st0" d="M8.2,18.8L6,20c-0.6,0.3-1.3,0.2-1.8-0.3c-0.5-0.5-0.6-1.2-0.3-1.8l1.2-2.2c-1.1-0.2-2.3,0.2-3.1,1
			c-1.4,1.4-1.4,3.7,0,5.2c1.4,1.4,3.7,1.4,5.2,0C8.1,21.1,8.4,19.9,8.2,18.8z"/>
		<path class="st0" d="M18.8,15.8l1.2,2.2c0.3,0.6,0.2,1.3-0.3,1.8c-0.5,0.5-1.2,0.6-1.8,0.3l-2.2-1.2c-0.2,1.1,0.2,2.3,1,3.1
			c1.4,1.4,3.7,1.4,5.2,0c1.4-1.4,1.4-3.7,0-5.2C21.1,15.9,19.9,15.6,18.8,15.8z"/>
		<path class="st0" d="M20,17.9L16.8,12L20,6c0.3-0.6,0.2-1.3-0.3-1.8C19.3,3.8,18.5,3.7,18,4l-6,3.2L6,4C5.5,3.7,4.7,3.8,4.3,4.3
			C3.8,4.7,3.7,5.5,4,6l3.2,6L4,17.9c-0.3,0.6-0.2,1.3,0.3,1.8C4.7,20.2,5.5,20.3,6,20l6-3.2l6,3.2c0.6,0.3,1.3,0.2,1.8-0.3
			C20.2,19.3,20.3,18.5,20,17.9z"/>
		<path class="st0" d="M5.2,8.2L4,6C3.7,5.5,3.8,4.7,4.3,4.3C4.7,3.8,5.5,3.7,6,4l2.2,1.2c0.2-1.1-0.2-2.3-1-3.1
			c-1.4-1.4-3.7-1.4-5.2,0c-1.4,1.4-1.4,3.7,0,5.2C2.9,8.1,4.1,8.4,5.2,8.2z"/>
	</g>
	<g>
		<g>
			<line class="st0" x1="9.4" y1="10.2" x2="10.1" y2="10.2"/>
			<line class="st0" x1="9.4" y1="12" x2="10.1" y2="12"/>
			<line class="st0" x1="9.4" y1="13.8" x2="10.1" y2="13.8"/>
		</g>
		<circle class="st0" cx="13.3" cy="12" r="1.4"/>
	</g>
</g>
</svg>
