<svg xmlns="http://www.w3.org/2000/svg" xmlns:xlink="http://www.w3.org/1999/xlink">
  <symbol id="search" viewBox="0 0 16 16">
    <path d="M7.04617 0C3.16102 0 0 3.16102 0 7.04617C0 10.9315 3.16102 14.0923 7.04617 14.0923C10.9315 14.0923 14.0923 10.9315 14.0923 7.04617C14.0923 3.16102 10.9315 0 7.04617 0ZM7.04617 12.7915C3.87821 12.7915 1.30083 10.2142 1.30083 7.0462C1.30083 3.87824 3.87821 1.30083 7.04617 1.30083C10.2141 1.30083 12.7915 3.87821 12.7915 7.04617C12.7915 10.2141 10.2141 12.7915 7.04617 12.7915Z" />
    <path d="M15.8097 14.8898L12.0806 11.1608C11.8265 10.9067 11.415 10.9067 11.1609 11.1608C10.9068 11.4147 10.9068 11.8266 11.1609 12.0805L14.89 15.8095C15.017 15.9366 15.1833 16.0001 15.3498 16.0001C15.5161 16.0001 15.6826 15.9366 15.8097 15.8095C16.0638 15.5557 16.0638 15.1437 15.8097 14.8898Z" />
  </symbol>

  <symbol id="play" viewBox="0 0 25 25">
    <path d="M12.5 0C5.59644 0 0 5.59644 0 12.5C0 19.4036 5.59644 25 12.5 25C19.4036 25 25 19.4036 25 12.5C24.9927 5.59953 19.4005 0.00737655 12.5 0ZM17.7642 12.8983C17.6777 13.0719 17.537 13.2126 17.3634 13.2991V13.3036L10.2205 16.875C9.77942 17.0954 9.24318 16.9166 9.02272 16.4754C8.96004 16.35 8.92776 16.2116 8.92855 16.0715V8.9286C8.92834 8.43547 9.32788 8.03557 9.82101 8.03531C9.9597 8.03525 10.0965 8.06748 10.2205 8.12948L17.3634 11.7009C17.8047 11.9209 17.9842 12.4569 17.7642 12.8983Z" />
  </symbol>
</svg>