<svg xmlns="http://www.w3.org/2000/svg">

  <symbol id="facebook" viewBox="0 0 50 50">
    <path d="M7.32422 50H23.6328V32.2266H17.7734V26.3672H23.6328V19.043C23.6328 15.0043 26.9184 11.7188 30.957 11.7188H38.2812V17.5781H32.4219C30.8064 17.5781 29.4922 18.8923 29.4922 20.5078V26.3672H38.0169L37.0403 32.2266H29.4922V50H42.6758C46.7144 50 50 46.7144 50 42.6758V7.32422C50 3.2856 46.7144 0 42.6758 0H7.32422C3.2856 0 0 3.2856 0 7.32422V42.6758C0 46.7144 3.2856 50 7.32422 50ZM2.92969 7.32422C2.92969 4.90112 4.90112 2.92969 7.32422 2.92969H42.6758C45.0989 2.92969 47.0703 4.90112 47.0703 7.32422V42.6758C47.0703 45.0989 45.0989 47.0703 42.6758 47.0703H32.4219V35.1562H39.5222L41.4753 23.4375H32.4219V20.5078H41.2109V8.78906H30.957C25.3029 8.78906 20.7031 13.3888 20.7031 19.043V23.4375H14.8438V35.1562H20.7031V47.0703H7.32422C4.90112 47.0703 2.92969 45.0989 2.92969 42.6758V7.32422Z" />
  </symbol>

  <symbol id="vk" viewBox="0 0 50 50">
    <path d="M44.5058 29.8928L44.4787 29.8676C44.0518 29.4736 42.7441 28.201 42.3032 27.6448C41.7855 26.9509 41.9049 26.4962 42.2929 25.8149C42.7831 24.9539 43.7653 23.6332 44.8048 22.2348C48.1343 17.7571 50.2839 14.6572 49.8414 12.4554L49.603 11.2793L37.307 11.2847C37.2639 11.4006 36.6223 14.2193 33.9146 19.019C31.9512 22.4991 30.6634 23.5924 30.2098 23.7854L30.1396 23.7641C29.992 23.5817 29.7341 23.0896 29.628 21.8213C29.5174 20.4926 29.6155 18.8839 29.7104 17.3283C29.8215 15.5041 29.9172 13.9286 29.6879 12.8014L29.3145 10.965C28.8632 10.8929 27.2111 10.2555 22.6078 10.207C18.6226 10.1662 17.4519 10.7418 16.877 11.2492L14.9754 12.9273L17.379 13.736C18.2938 14.0438 18.5974 14.399 18.8465 16.1595C19.0091 17.3069 19.0941 19.2353 18.9186 20.9568C18.6665 23.4253 18.0619 23.8846 18.0306 23.909C17.9264 23.8736 17.0433 23.4871 15.5102 20.2458C14.4467 17.9978 13.5144 15.3385 12.833 13.3969C12.0533 11.1733 12.1937 11.6467 11.7981 10.5961L-0.0976562 10.5957L0.672151 12.587C3.88146 20.8966 6.82603 27.3858 10.7666 32.0466C15.1203 37.196 20.5311 39.8923 27.8195 39.8923H29.2843V38.4274C29.2843 37.058 29.3976 36.0719 29.6406 35.3242C29.789 34.8687 29.9862 34.4922 30.1934 34.0974C30.5009 33.516 30.8015 33.2669 30.9655 33.2299C31.1143 33.1959 31.3759 33.305 31.6659 33.5213C32.4982 34.142 33.1589 34.9576 33.8586 35.8212C34.8679 37.0675 35.9116 38.3557 37.5676 39.1991C38.4724 39.66 40.1311 39.8927 41.0439 39.8927C41.2854 39.8927 49.8918 39.8923 49.9024 39.8923L49.8395 38.3672C49.7457 36.0867 47.9508 33.2352 44.5058 29.8928ZM41.1008 36.9626H41.0771C40.4477 36.9729 39.2464 36.7665 38.897 36.5887C37.7961 36.028 37.0267 35.0777 36.1352 33.9776C35.3528 33.0113 34.5437 32.0122 33.4172 31.1726C32.5062 30.4932 31.6788 30.2945 31.0219 30.2945C30.7595 30.2945 30.5237 30.3261 30.3216 30.3719C29.559 30.5436 28.4684 31.0921 27.6013 32.7321C27.3568 33.1986 27.0794 33.727 26.8548 34.4182C26.6194 35.1414 26.4729 35.9452 26.4031 36.9229C20.9107 36.6109 16.6249 34.438 13.0039 30.1552C9.63747 26.1731 6.98892 20.6032 4.18397 13.5243C4.38691 13.5243 9.47229 13.525 9.77251 13.525C9.86444 13.7833 9.96363 14.0663 10.0689 14.3662C10.8032 16.4608 11.8092 19.3291 12.9944 21.7751C14.6916 25.2778 16.2415 26.8399 18.0195 26.8399C18.9072 26.8399 19.7033 26.4638 20.3217 25.7515C21.2033 24.7365 21.7152 23.061 21.8869 20.6292C22.0223 18.7115 21.8964 16.8015 21.7476 15.749C21.6248 14.8831 21.4497 13.974 21.0225 13.1596C22.8432 13.0776 25.2812 13.2073 26.8258 13.4289C26.9661 14.1934 26.8746 15.696 26.7861 17.1498C26.5721 20.6616 26.3512 24.2856 28.2101 25.9812C28.537 26.2795 28.8838 26.4393 28.8937 26.4458L29.8398 26.7361C30.2048 26.6236 32.3193 27.6963 36.3232 20.7089C37.6061 18.47 38.8005 15.8902 39.4437 14.2052C40.9352 14.2021 46.0168 14.2079 46.6138 14.2086C45.7681 16.0698 43.7638 18.7245 42.4538 20.4865C41.3117 22.0223 40.3256 23.3487 39.7469 24.3649C38.6719 26.2528 38.8528 27.9355 39.9724 29.4198L39.9899 29.4427C40.6148 30.238 42.1578 31.7105 42.4779 32.0073C44.7965 34.2583 45.9138 35.8754 46.4456 36.9622H41.1008V36.9626Z" />
  </symbol>

  <symbol id="twitter" viewBox="0 0 50 50">
    <path d="M50 10.0551C46.8548 10.2001 46.9234 10.1883 46.5679 10.218L48.4306 4.89842C48.4306 4.89842 42.6163 7.03732 41.1423 7.41993C37.2711 3.94055 31.517 3.78681 27.4033 6.3152C24.0345 8.38619 22.2263 11.9426 22.8294 16.0995C16.2731 15.1897 10.7491 12.0819 6.38771 6.84277L5.00832 5.18604L3.97758 7.0789C2.67487 9.47071 2.24228 12.2055 2.75917 14.7792C2.97127 15.8352 3.33176 16.8422 3.8311 17.7852L2.64778 17.3267L2.5074 19.3039C2.36511 21.3123 3.03383 23.6568 4.29649 25.5748C4.65202 26.115 5.10979 26.7082 5.69 27.2934L5.07851 27.1995L5.82466 29.4651C6.80542 32.4417 8.84247 34.7446 11.4861 36.0248C8.8459 37.1452 6.7131 37.8601 3.2074 39.0133L0 40.0676L2.96249 41.6874C4.09203 42.305 8.08334 44.3676 12.027 44.9863C20.7931 46.3611 30.6629 45.2415 37.3074 39.2574C42.9039 34.217 44.7403 27.0473 44.3588 19.5861C44.3012 18.4566 44.6106 17.3786 45.2301 16.5512C46.471 14.8944 49.9924 10.0662 50 10.0551ZM42.8875 14.7964C41.8587 16.1701 41.3433 17.9245 41.4356 19.7357C41.8205 27.2617 39.7728 33.0982 35.3489 37.0823C30.1811 41.7366 21.8456 43.5634 12.4805 42.0944C10.7845 41.8285 9.03168 41.233 7.58095 40.6383C10.5202 39.627 12.7899 38.7256 16.4555 36.9907L21.5725 34.5687L15.9229 34.2071C13.2168 34.0339 10.9634 32.7224 9.57832 30.5931C10.3138 30.5503 11.0229 30.4313 11.729 30.2345L17.1173 28.7338L11.684 27.4032C9.04388 26.7566 7.53899 25.177 6.74133 23.9654C6.21757 23.1693 5.8754 22.3537 5.67017 21.6018C6.2149 21.7479 6.85005 21.8521 7.8743 21.9535L12.9032 22.451L8.91876 19.3428C6.04782 17.1035 4.89731 13.7394 5.74074 10.5053C14.7007 19.7986 25.2209 19.1002 26.2798 19.3458C26.0467 17.0818 26.0406 17.0765 25.9796 16.8609C24.6235 12.067 27.5955 9.63284 28.936 8.80886C31.736 7.08805 36.1805 6.82865 39.2589 9.66374C39.9239 10.2756 40.823 10.5163 41.6645 10.3073C42.4198 10.1196 43.0397 9.92085 43.6466 9.70455L42.3832 13.3125L43.996 13.3136C43.6916 13.7218 43.3266 14.2105 42.8875 14.7964Z" />
  </symbol>

  <symbol id="like" viewBox="0 0 50 50">
    <path d="M47.8435 33.9921C48.8682 32.6851 49.3596 31.284 49.2968 29.8411C49.2341 28.2518 48.5231 27.0075 47.9376 26.2442C48.6172 24.5504 48.8786 21.8841 46.6097 19.8139C44.9472 18.2978 42.1241 17.6182 38.2136 17.8064C35.4637 17.9318 33.1634 18.4442 33.0693 18.4651H33.0589C32.5361 18.5592 31.9819 18.6742 31.4173 18.7997C31.3755 18.1305 31.4905 16.468 32.7243 12.7248C34.1881 8.2706 34.1045 4.86198 32.4524 2.5826C30.7168 0.188206 27.9459 0 27.1304 0C26.3462 0 25.6247 0.324132 25.1124 0.920117C23.9518 2.26892 24.0877 4.75742 24.2341 5.90757C22.8539 9.60895 18.9853 18.6847 15.7126 21.2045C15.6498 21.2463 15.5976 21.2986 15.5453 21.3509C14.5833 22.3651 13.9351 23.463 13.4959 24.4249C12.879 24.0903 12.1785 23.9021 11.4257 23.9021H5.04758C2.64273 23.9021 0.697937 25.8574 0.697937 28.2518V45.2426C0.697937 47.6474 2.65319 49.5922 5.04758 49.5922H11.4257C12.3562 49.5922 13.2241 49.2995 13.9351 48.7976L16.3922 49.0903C16.7686 49.1426 23.4604 49.9895 30.3299 49.8536C31.5741 49.9477 32.7452 50 33.8326 50C35.7042 50 37.3353 49.8536 38.6946 49.5609C41.8941 48.8812 44.0794 47.522 45.1877 45.5249C46.0346 43.9983 46.0346 42.4822 45.8987 41.5203C47.9794 39.6382 48.3454 37.5575 48.2722 36.0937C48.2304 35.2468 48.0421 34.5253 47.8435 33.9921ZM5.04758 46.7691C4.20066 46.7691 3.52102 46.079 3.52102 45.2426V28.2413C3.52102 27.3944 4.21111 26.7148 5.04758 26.7148H11.4257C12.2726 26.7148 12.9522 27.4049 12.9522 28.2413V45.2321C12.9522 46.079 12.2621 46.7587 11.4257 46.7587H5.04758V46.7691ZM45.1668 32.7687C44.7276 33.2288 44.644 33.9293 44.9786 34.473C44.9786 34.4835 45.4073 35.2154 45.4595 36.2192C45.5327 37.5889 44.874 38.8018 43.4938 39.8369C43.0024 40.2133 42.8037 40.8616 43.0129 41.4471C43.0129 41.4575 43.4625 42.8377 42.7306 44.1447C42.03 45.3994 40.4721 46.2986 38.1091 46.8005C36.2165 47.2083 33.6444 47.2815 30.4867 47.0305C30.4449 47.0305 30.3926 47.0305 30.3403 47.0305C23.6172 47.1769 16.8209 46.2986 16.7477 46.2882H16.7372L15.6812 46.1627C15.7439 45.8699 15.7753 45.5563 15.7753 45.2426V28.2413C15.7753 27.7917 15.7021 27.3526 15.5766 26.9448C15.7649 26.2442 16.2876 24.6863 17.5214 23.3584C22.2161 19.6361 26.8063 7.07863 27.0049 6.53492C27.0886 6.31535 27.1095 6.07486 27.0677 5.83438C26.8899 4.66332 26.9526 3.23087 27.2036 2.80217C27.7577 2.81263 29.2529 2.96947 30.1521 4.21372C31.2186 5.688 31.1768 8.32288 30.0267 11.8151C28.2701 17.1372 28.1237 19.9394 29.5143 21.1731C30.2044 21.79 31.1245 21.8214 31.7937 21.5809C32.4315 21.4345 33.038 21.3091 33.613 21.215C33.6549 21.2045 33.7071 21.1941 33.749 21.1836C36.9589 20.4831 42.7096 20.0544 44.7067 21.8737C46.4006 23.4212 45.1981 25.4705 45.0622 25.6901C44.6754 26.2756 44.7904 27.0389 45.3132 27.5094C45.3236 27.5199 46.4215 28.555 46.4738 29.9456C46.5156 30.8762 46.0764 31.8277 45.1668 32.7687Z" />
  </symbol>

  <symbol id="arrow-right" viewBox="0 0 64 16">
    <path d="M62.7796 8.70711C63.1702 8.31658 63.1702 7.68342 62.7796 7.29289L56.4157 0.928932C56.0252 0.538408 55.392 0.538408 55.0015 0.928932C54.6109 1.31946 54.6109 1.95262 55.0015 2.34315L60.6583 8L55.0015 13.6569C54.6109 14.0474 54.6109 14.6805 55.0015 15.0711C55.392 15.4616 56.0252 15.4616 56.4157 15.0711L62.7796 8.70711ZM0 9H62.0725V7H0V9Z" />
  </symbol>

</svg>