<svg xmlns="http://www.w3.org/2000/svg">

  <symbol id="i-logo" viewBox="0 0 129 20">
    <path d="M6.10547 19L2.14453 4.17578L0.398438 4V1.9375H7.26562V4L5.42578 4.26953L7.42969 12.5664L7.79297 14.0898H7.86328L8.29688 12.5664L11.6719 1.9375H14.1914L17.6953 12.8594L18.1055 14.207H18.1758L18.5273 12.8594L20.6016 4.26953L18.6562 4V1.9375H25.3945V4L23.7656 4.17578L19.7578 19H16.6641L13.4297 9.02734L13.0195 7.62109H12.9492L12.4922 9.07422L9.22266 19H6.10547Z" fill="#262D33" />
    <path d="M26.4375 19V16.9492L28.0898 16.5977V8.73438L26.2617 8.38281V6.32031H31.5117V16.5977L33.1523 16.9492V19H26.4375ZM27.9727 3.63672V0.71875H31.5117V3.63672H27.9727Z" fill="#262D33" />
    <path d="M34.1133 19V16.9492L35.7656 16.5977V3.13281L33.9375 2.78125V0.71875H39.1875V16.5977L40.8398 16.9492V19H34.1133Z" fill="#262D33" />
    <path d="M41.7773 19V16.9492L43.4297 16.5977V3.13281L41.6016 2.78125V0.71875H46.8516V16.5977L48.5039 16.9492V19H41.7773Z" fill="#262D33" />
    <path d="M57.0586 19.2461C56.2695 19.2461 55.5977 19.0938 55.043 18.7891C54.4883 18.4766 54.0234 18.0273 53.6484 17.4414L53.4023 19H50.4492V3.13281L48.6328 2.78125V0.71875H53.8594V7.66797C54.2266 7.16016 54.6758 6.76953 55.207 6.49609C55.7461 6.22266 56.3711 6.08594 57.082 6.08594C58.6211 6.08594 59.8047 6.69531 60.6328 7.91406C61.4688 9.125 61.8867 10.7422 61.8867 12.7656V13.0117C61.8867 14.9023 61.4688 16.4141 60.6328 17.5469C59.7969 18.6797 58.6055 19.2461 57.0586 19.2461ZM56.0156 16.5859C56.8906 16.5859 57.5195 16.2773 57.9023 15.6602C58.2852 15.0352 58.4766 14.1523 58.4766 13.0117V12.7656C58.4766 11.5312 58.2812 10.5547 57.8906 9.83594C57.5078 9.10938 56.8945 8.74609 56.0508 8.74609C55.5352 8.74609 55.0938 8.86719 54.7266 9.10938C54.3594 9.35156 54.0703 9.67969 53.8594 10.0938V15.3906C54.3359 16.1875 55.0547 16.5859 56.0156 16.5859Z" fill="#262D33" />
    <path d="M69.7148 19.2461C68.4961 19.2461 67.4336 18.9805 66.5273 18.4492C65.6289 17.9102 64.9297 17.1719 64.4297 16.2344C63.9375 15.2969 63.6914 14.2266 63.6914 13.0234V12.5547C63.6914 11.2969 63.9258 10.1836 64.3945 9.21484C64.8633 8.23828 65.5234 7.47266 66.375 6.91797C67.2344 6.35547 68.2461 6.07812 69.4102 6.08594C71.1211 6.08594 72.4297 6.58984 73.3359 7.59766C74.2422 8.59766 74.6953 10.0039 74.6953 11.8164V13.6797H67.2422L67.2188 13.75C67.2812 14.5859 67.5586 15.2734 68.0508 15.8125C68.543 16.3516 69.2422 16.6211 70.1484 16.6211C70.7734 16.6211 71.3555 16.543 71.8945 16.3867C72.4414 16.2227 72.9727 15.9844 73.4883 15.6719L74.4141 17.7812C73.8906 18.2031 73.2305 18.5547 72.4336 18.8359C71.6445 19.1094 70.7383 19.2461 69.7148 19.2461ZM67.2656 11.418H71.4961V11.1133C71.4961 10.3477 71.3359 9.74219 71.0156 9.29688C70.7031 8.84375 70.1875 8.61719 69.4688 8.61719C68.7812 8.61719 68.2578 8.87891 67.8984 9.40234C67.5391 9.91797 67.3164 10.5703 67.2305 11.3594L67.2656 11.418Z" fill="#262D33" />
    <path d="M76.5352 19V16.9492L78.1758 16.5977V8.73438L76.3594 8.38281V6.32031H81.3633L81.4922 7.89062L81.5156 8.17188C82.1406 6.78125 83.0781 6.08594 84.3281 6.08594C84.5312 6.08594 84.75 6.10156 84.9844 6.13281C85.2266 6.16406 85.4453 6.21094 85.6406 6.27344L85.2773 9.42578L83.5781 9.33203C83.0938 9.30859 82.6992 9.39062 82.3945 9.57812C82.0977 9.76562 81.832 10.0352 81.5977 10.3867V16.5977L83.2383 16.9492V19H76.5352Z" fill="#262D33" />
    <path d="M86.918 19V16.9492L88.5586 16.5977V8.73438L86.7422 8.38281V6.32031H91.7461L91.875 7.89062L91.8984 8.17188C92.5234 6.78125 93.4609 6.08594 94.7109 6.08594C94.9141 6.08594 95.1328 6.10156 95.3672 6.13281C95.6094 6.16406 95.8281 6.21094 96.0234 6.27344L95.6602 9.42578L93.9609 9.33203C93.4766 9.30859 93.082 9.39062 92.7773 9.57812C92.4805 9.76562 92.2148 10.0352 91.9805 10.3867V16.5977L93.6211 16.9492V19H86.918Z" fill="#262D33" />
    <path d="M97.1016 19V16.9492L98.7539 16.5977V8.73438L96.9258 8.38281V6.32031H102.176V16.5977L103.816 16.9492V19H97.1016ZM98.6367 3.63672V0.71875H102.176V3.63672H98.6367Z" fill="#262D33" />
    <path d="M111.035 19.2461C109.816 19.2461 108.754 18.9805 107.848 18.4492C106.949 17.9102 106.25 17.1719 105.75 16.2344C105.258 15.2969 105.012 14.2266 105.012 13.0234V12.5547C105.012 11.2969 105.246 10.1836 105.715 9.21484C106.184 8.23828 106.844 7.47266 107.695 6.91797C108.555 6.35547 109.566 6.07812 110.73 6.08594C112.441 6.08594 113.75 6.58984 114.656 7.59766C115.562 8.59766 116.016 10.0039 116.016 11.8164V13.6797H108.562L108.539 13.75C108.602 14.5859 108.879 15.2734 109.371 15.8125C109.863 16.3516 110.562 16.6211 111.469 16.6211C112.094 16.6211 112.676 16.543 113.215 16.3867C113.762 16.2227 114.293 15.9844 114.809 15.6719L115.734 17.7812C115.211 18.2031 114.551 18.5547 113.754 18.8359C112.965 19.1094 112.059 19.2461 111.035 19.2461ZM108.586 11.418H112.816V11.1133C112.816 10.3477 112.656 9.74219 112.336 9.29688C112.023 8.84375 111.508 8.61719 110.789 8.61719C110.102 8.61719 109.578 8.87891 109.219 9.40234C108.859 9.91797 108.637 10.5703 108.551 11.3594L108.586 11.418Z" fill="#262D33" />
    <path d="M123.035 19.2461C122.09 19.2461 121.207 19.1562 120.387 18.9766C119.574 18.7969 118.793 18.5391 118.043 18.2031L118.008 14.6172H120.387L120.844 16.4453C121.109 16.5781 121.398 16.6836 121.711 16.7617C122.031 16.8398 122.395 16.8789 122.801 16.8789C123.566 16.8789 124.105 16.7539 124.418 16.5039C124.73 16.2539 124.887 15.9414 124.887 15.5664C124.887 15.2148 124.719 14.9062 124.383 14.6406C124.047 14.3672 123.387 14.1289 122.402 13.9258C120.895 13.6133 119.785 13.1289 119.074 12.4727C118.371 11.8164 118.02 10.9766 118.02 9.95312C118.02 9.25781 118.195 8.61719 118.547 8.03125C118.906 7.44531 119.449 6.98047 120.176 6.63672C120.91 6.28516 121.848 6.10938 122.988 6.10938C123.941 6.10938 124.812 6.20312 125.602 6.39062C126.398 6.57031 127.066 6.80859 127.605 7.10547L127.641 10.5742H125.273L124.91 8.91016C124.457 8.59766 123.887 8.44141 123.199 8.44141C122.605 8.44141 122.145 8.56641 121.816 8.81641C121.496 9.05859 121.336 9.36719 121.336 9.74219C121.336 10.0703 121.477 10.3672 121.758 10.6328C122.047 10.8906 122.676 11.1289 123.645 11.3477C125.215 11.707 126.359 12.1875 127.078 12.7891C127.797 13.3828 128.156 14.2188 128.156 15.2969C128.156 16.4766 127.727 17.4297 126.867 18.1562C126.016 18.8828 124.738 19.2461 123.035 19.2461Z" fill="#262D33" />
  </symbol>

  <symbol id="i-cart" viewBox="0 0 18 18">
    <path d="M4 4.5H17C17.037 4.50005 18 4.50127 18 5.5L17 11.5C16.911 11.991 16.5709 12.5 16.0642 12.5H6L6.09506 13.7985C6.16424 14.1291 6.45721 14.5 6.79145 14.5H15.6066C15.6443 14.5 15.6808 14.5054 15.7158 14.5155C16.441 14.6204 17 15.2462 17 16C17 16.8271 16.3271 17.5 15.5 17.5C14.6729 17.5 14 16.8271 14 16C14 15.8248 14.0302 15.6565 14.0857 15.5H7.91434C7.9698 15.6564 8 15.8248 8 16C8 16.8271 7.32711 17.5 6.5 17.5C5.67289 17.5 5 16.8271 5 16C5 15.5183 5.2282 15.089 5.58216 14.8143C5.39546 14.568 5.26019 14.2794 5.19962 13.9905L4.80856 12.1269L2 1.5H0.457618C0.204824 1.5 0 1.21822 0 0.962647C0 0.707075 0.204824 0.5 0.457618 0.5H2.56171C2.77221 0.5 2.95559 0.645345 3.00603 0.852063L4 4.5Z" fill="white" />
  </symbol>

  <symbol id="i-slider-btn-prev" viewBox="0 0 60 60" fill="red">
    <path fill-rule="evenodd" clip-rule="evenodd" d="M30 60C46.5685 60 60 46.5685 60 30C60 13.4315 46.5685 0 30 0C13.4315 0 0 13.4315 0 30C0 46.5685 13.4315 60 30 60ZM25.3052 30L32.7203 37.3779C33.0932 37.749 33.0932 38.3506 32.7203 38.7217C32.3474 39.0928 31.7429 39.0928 31.37 38.7217L23.2797 30.6719C22.9068 30.3008 22.9068 29.6992 23.2797 29.3281L31.37 21.2783C31.7429 20.9072 32.3474 20.9072 32.7203 21.2783C33.0932 21.6494 33.0932 22.251 32.7203 22.6221L25.3052 30Z" fill="white" />
  </symbol>

  <symbol id="i-slider-btn-next" viewBox="0 0 60 60" fill="red">
    <path fill-rule="evenodd" clip-rule="evenodd" d="M30 60C13.4315 60 0 46.5685 0 30C0 13.4315 13.4315 0 30 0C46.5685 0 60 13.4315 60 30C60 46.5685 46.5685 60 30 60ZM34.6948 30L27.2797 37.3779C26.9068 37.749 26.9068 38.3506 27.2797 38.7217C27.6526 39.0928 28.2571 39.0928 28.63 38.7217L36.7203 30.6719C37.0932 30.3008 37.0932 29.6992 36.7203 29.3281L28.63 21.2783C28.2571 20.9072 27.6526 20.9072 27.2797 21.2783C26.9068 21.6494 26.9068 22.251 27.2797 22.6221L34.6948 30Z" fill="white" />
  </symbol>

  <symbol id="i-btn-arrow" viewBox="0 0 16 7">
    <path fill-rule="evenodd" clip-rule="evenodd" d="M0.0135193 3V4H11.0135V7L15.0135 3.5L11.0135 0V3H0.0135193Z" fill="white" />
  </symbol>

  <symbol id="i-facebook" viewBox="0 0 10 18">
    <path fill-rule="evenodd" clip-rule="evenodd" d="M9.62343 0.0037452L7.22488 0C4.5302 0 2.78878 1.73871 2.78878 4.42982V6.47227H0.377148C0.168754 6.47227 0 6.63668 0 6.83949V9.79876C0 10.0016 0.168947 10.1658 0.377148 10.1658H2.78878V17.633C2.78878 17.8358 2.95753 18 3.16593 18H6.31242C6.52081 18 6.68956 17.8356 6.68956 17.633V10.1658H9.50932C9.71772 10.1658 9.88647 10.0016 9.88647 9.79876L9.88763 6.83949C9.88763 6.74211 9.84779 6.64886 9.77717 6.57994C9.70656 6.51103 9.61034 6.47227 9.51029 6.47227H6.68956V4.74086C6.68956 3.90868 6.89334 3.48622 8.00727 3.48622L9.62304 3.48566C9.83125 3.48566 10 3.32124 10 3.11863V0.370775C10 0.168347 9.83144 0.00411972 9.62343 0.0037452Z" fill="white" />
  </symbol>

  <symbol id="i-twitter" viewBox="0 0 18 16">
    <path fill-rule="evenodd" clip-rule="evenodd" d="M17.979 2.36284C17.9532 2.33213 17.9106 2.32171 17.8743 2.33846C17.3361 2.57945 16.77 2.7527 16.1869 2.85505C16.8059 2.38498 17.2672 1.73403 17.5037 0.987608C17.5151 0.951878 17.5033 0.912798 17.4744 0.889537C17.4453 0.866275 17.4049 0.863298 17.373 0.882465C16.6758 1.29987 15.9206 1.59409 15.1276 1.75729C14.4248 1.0211 13.4435 0.599976 12.4278 0.599976C10.3623 0.599976 8.68211 2.29603 8.68211 4.38083C8.68211 4.63299 8.70626 4.88273 8.75419 5.12521C5.89336 4.94693 3.21836 3.56053 1.3995 1.30862C1.38088 1.28554 1.35268 1.2727 1.32318 1.27568C1.29387 1.27791 1.26769 1.29466 1.25294 1.32016C0.921099 1.89481 0.745777 2.55228 0.745777 3.2211C0.745777 4.38027 1.2675 5.46408 2.15591 6.17924C1.69853 6.12378 1.25183 5.97844 0.849016 5.75271C0.821916 5.73727 0.788179 5.73745 0.761078 5.75327C0.733978 5.7689 0.716833 5.79793 0.716095 5.82957L0.715727 5.87795C0.715727 7.54274 1.8025 9.00451 3.3487 9.48984C2.94145 9.55609 2.51891 9.55162 2.10356 9.4716C2.07295 9.46583 2.04088 9.47644 2.01986 9.50026C1.99903 9.52408 1.99202 9.55739 2.00161 9.58754C2.46526 11.0484 3.75354 12.0728 5.25309 12.2005C4.00224 13.1255 2.5237 13.6129 0.961473 13.6129C0.673694 13.6129 0.383886 13.5956 0.0999786 13.5619C0.0594204 13.5573 0.0192308 13.5817 0.00521981 13.6209C-0.00879122 13.6606 0.00614159 13.7049 0.0411692 13.7274C1.73171 14.8218 3.68643 15.4 5.69425 15.4C12.2619 15.4 16.1865 10.0148 16.1865 4.80866C16.1865 4.66369 16.1837 4.51947 16.178 4.37562C16.8865 3.85251 17.4947 3.21217 17.9851 2.47096C18.007 2.43783 18.0046 2.39373 17.979 2.36284Z" fill="white" />
  </symbol>

  <symbol id="i-instagram" viewBox="0 0 18 18">
    <path fill-rule="evenodd" clip-rule="evenodd" d="M9.00002 0.5C11.3085 0.5 11.5979 0.509785 12.5045 0.551151C13.4093 0.592416 14.0272 0.736118 14.5678 0.946256C15.1268 1.16345 15.6008 1.45409 16.0734 1.92663C16.5459 2.3992 16.8366 2.87323 17.0538 3.43218C17.2639 3.97284 17.4076 4.59073 17.4488 5.49546C17.4902 6.40208 17.5 6.69154 17.5 9.00002C17.5 11.3085 17.4902 11.5979 17.4488 12.5045C17.4076 13.4093 17.2639 14.0272 17.0538 14.5678C16.8366 15.1268 16.5459 15.6008 16.0734 16.0734C15.6008 16.5459 15.1268 16.8366 14.5678 17.0538C14.0272 17.2639 13.4093 17.4076 12.5045 17.4488C11.5979 17.4902 11.3085 17.5 9.00002 17.5C6.69154 17.5 6.40208 17.4902 5.49546 17.4488C4.59073 17.4076 3.97284 17.2639 3.43218 17.0538C2.87323 16.8366 2.3992 16.5459 1.92663 16.0734C1.45409 15.6008 1.16345 15.1268 0.946256 14.5678C0.736118 14.0272 0.592416 13.4093 0.551151 12.5045C0.509785 11.5979 0.5 11.3085 0.5 9.00002C0.5 6.69154 0.509785 6.40208 0.551151 5.49546C0.592416 4.59073 0.736118 3.97284 0.946256 3.43218C1.16345 2.87323 1.45409 2.3992 1.92663 1.92663C2.3992 1.45409 2.87323 1.16345 3.43218 0.946256C3.97284 0.736118 4.59073 0.592416 5.49546 0.551151C6.40208 0.509785 6.69154 0.5 9.00002 0.5ZM8.99734 11.8298C10.5616 11.8298 11.8298 10.5616 11.8298 8.99734C11.8298 7.433 10.5616 6.16488 8.99734 6.16488C7.433 6.16488 6.16488 7.433 6.16488 8.99734C6.16488 10.5616 7.433 11.8298 8.99734 11.8298ZM8.99734 4.63383C11.4072 4.63383 13.3608 6.58742 13.3608 8.99734C13.3608 11.4072 11.4072 13.3608 8.99734 13.3608C6.58742 13.3608 4.63383 11.4072 4.63383 8.99734C4.63383 6.58742 6.58742 4.63383 8.99734 4.63383ZM14.8556 4.37224C14.8556 4.94601 14.3904 5.41111 13.8166 5.41111C13.2429 5.41111 12.7778 4.94601 12.7778 4.37224C12.7778 3.79847 13.2429 3.33333 13.8166 3.33333C14.3904 3.33333 14.8556 3.79847 14.8556 4.37224Z" fill="white" />
  </symbol>

  <symbol id="i-to-top" viewBox="0 0 40 40">
    <path opacity="0.1" d="M20 0.5C30.7696 0.5 39.5 9.23045 39.5 20C39.5 30.7696 30.7696 39.5 20 39.5C9.23045 39.5 0.5 30.7696 0.5 20C0.5 9.23045 9.23045 0.5 20 0.5Z" stroke="#D8BFFF" />
    <path fill-rule="evenodd" clip-rule="evenodd" d="M20 18.1526L16.311 21.8602C16.1255 22.0466 15.8247 22.0466 15.6392 21.8602C15.4536 21.6737 15.4536 21.3714 15.6392 21.185L19.6641 17.1398C19.8496 16.9534 20.1504 16.9534 20.3359 17.1398L24.3608 21.185C24.5464 21.3714 24.5464 21.6737 24.3608 21.8602C24.1753 22.0466 23.8745 22.0466 23.689 21.8602L20 18.1526Z" fill="white" />
  </symbol>

</svg>