<svg width="23" height="24" viewBox="0 0 23 24" fill="none" xmlns="http://www.w3.org/2000/svg">
<path d="M6.6571 0C2.98565 0 0 3.12481 0 6.96524V17.0365C0 20.8769 2.98565 24 6.6571 24H16.3429C20.0143 24 23 20.8769 23 17.0365V6.96524C23 3.12481 20.0143 0 16.3429 0H6.6571ZM6.6571 2.06322H16.3429C18.9559 2.06322 21.0292 4.23197 21.0292 6.96524V17.0365C21.0292 19.7698 18.9559 21.9368 16.3429 21.9368H6.6571C4.04408 21.9368 1.97241 19.7698 1.97241 17.0365V6.96524C1.97241 4.23197 4.04408 2.06322 6.6571 2.06322ZM17.6727 4.12641C16.9107 4.12641 16.2934 4.77212 16.2934 5.56909C16.2934 6.36609 16.9107 7.01178 17.6727 7.01178C18.4346 7.01178 19.0519 6.36609 19.0519 5.56909C19.0519 4.77212 18.4346 4.12641 17.6727 4.12641ZM11.5 5.82073C8.24893 5.82073 5.59264 8.5993 5.59264 12C5.59264 15.4007 8.24893 18.1793 11.5 18.1793C14.7511 18.1793 17.409 15.4007 17.409 12C17.409 8.5993 14.7511 5.82073 11.5 5.82073ZM11.5 7.88395C13.6853 7.88395 15.4366 9.71415 15.4366 12C15.4366 14.2859 13.6853 16.1161 11.5 16.1161C9.31472 16.1161 7.56504 14.2859 7.56504 12C7.56504 9.71415 9.31472 7.88395 11.5 7.88395Z" fill="#575757"/>
</svg>
