<svg width="22" height="18" viewBox="0 0 22 18" fill="none" xmlns="http://www.w3.org/2000/svg">
<path d="M22 2.13046C21.191 2.49194 20.321 2.73626 19.4081 2.84633C20.3398 2.28369 21.0552 1.39321 21.3922 0.332343C20.5202 0.853289 19.5546 1.23115 18.526 1.43483C17.7032 0.551897 16.5301 0 15.232 0C12.7393 0 10.7189 2.03437 10.7189 4.54398C10.7189 4.90027 10.7584 5.24719 10.8357 5.57956C7.0846 5.39031 3.75901 3.58068 1.53295 0.831733C1.14443 1.50256 0.921886 2.28304 0.921886 3.11596C0.921886 4.6927 1.71835 6.08333 2.92973 6.89853C2.18992 6.87525 1.49391 6.67074 0.885376 6.33014C0.88451 6.34929 0.884504 6.36818 0.884504 6.38718C0.884504 8.58925 2.44044 10.4254 4.50492 10.8432C4.12653 10.947 3.7279 11.002 3.31624 11.002C3.02512 11.002 2.74286 10.9742 2.46681 10.921C3.04153 12.7262 4.70801 14.0402 6.68333 14.0769C5.13742 15.2959 3.19166 16.022 1.07697 16.022C0.712916 16.022 0.353368 16.0004 0 15.9587C1.99818 17.248 4.37022 18 6.91929 18C15.2207 18 19.7597 11.076 19.7597 5.07064C19.7597 4.87371 19.7552 4.67813 19.747 4.48326C20.6285 3.84206 21.3936 3.04194 21.999 2.13049" fill="#575757"/>
</svg>
